<svg xmlns="http://www.w3.org/2000/svg" xmlns:xlink="http://www.w3.org/1999/xlink" width="1920" zoomAndPan="magnify" viewBox="0 0 1440 809.999993" height="1080" preserveAspectRatio="xMidYMid meet" version="1.0"><defs><g/><clipPath id="18f34a75c5"><rect x="0" width="1254" y="0" height="690"/></clipPath></defs><g transform="matrix(1, 0, 0, 1, 91, 58)"><g clip-path="url(#18f34a75c5)"><g fill="#1f003d" fill-opacity="1"><g transform="translate(36.277237, 512.973504)"><g><path d="M 113.640625 -366.578125 C 49.9375 -361.945312 23.246094 -318.941406 26.996094 -267.398438 L 29.222656 -236.765625 L -5.300781 -234.253906 C -11.136719 -233.828125 -15.195312 -229.136719 -14.804688 -223.785156 L -14.132812 -214.546875 C -13.746094 -209.199219 -9.085938 -205.625 -3.25 -206.050781 L 31.273438 -208.5625 L 42.765625 -50.527344 C 44.285156 -29.617188 25.117188 -24.3125 26 -12.15625 L 26.144531 -10.210938 C 26.496094 -5.347656 30.632812 -2.226562 36.957031 -2.6875 L 131.777344 -9.582031 C 137.125 -9.972656 140.769531 -13.65625 140.414062 -18.519531 L 140.273438 -20.464844 C 139.390625 -32.621094 114.792969 -34.746094 113.273438 -55.652344 L 101.78125 -213.6875 L 159.160156 -217.859375 C 164.507812 -218.25 168.601562 -222.457031 168.214844 -227.804688 L 167.542969 -237.046875 C 167.152344 -242.394531 162.457031 -246.453125 157.109375 -246.0625 L 97.785156 -241.75 C 82.417969 -278.273438 66.011719 -342.582031 101.023438 -345.128906 C 138.984375 -347.402344 112.808594 -283.902344 165.808594 -287.757812 C 184.285156 -289.101562 192.050781 -303.351562 191.199219 -315.023438 C 188.972656 -345.65625 154 -369.511719 113.640625 -366.578125 Z M 113.640625 -366.578125 "/></g></g></g><g fill="#1f003d" fill-opacity="1"><g transform="translate(213.398589, 499.844875)"><g><path d="M 152.921875 -246.011719 C 120.289062 -244.546875 98.164062 -226.46875 88.847656 -194.816406 L 87.207031 -231.34375 C 86.792969 -240.597656 82.144531 -246.246094 71.183594 -240.386719 L 13.964844 -210.484375 C 7.761719 -207.277344 4.042969 -203.203125 4.261719 -198.335938 L 4.347656 -196.386719 C 4.894531 -184.210938 27.367188 -183.757812 28.328125 -162.324219 L 33.453125 -48.355469 C 34.371094 -27.898438 15.550781 -23.148438 16.101562 -10.972656 L 16.1875 -9.023438 C 16.429688 -3.667969 20.941406 -0.941406 27.761719 -1.246094 L 117.867188 -5.296875 C 124.199219 -5.582031 128.449219 -8.703125 128.210938 -14.058594 L 128.121094 -16.007812 C 127.574219 -28.183594 103.046875 -30.988281 102.128906 -51.441406 L 97.75 -148.851562 C 96.542969 -175.640625 102.160156 -202.734375 121.152344 -203.589844 C 147.453125 -204.773438 132.289062 -162.117188 170.28125 -163.828125 C 193.660156 -164.878906 200.640625 -183.25 199.722656 -203.707031 C 198.605469 -228.542969 181.65625 -247.304688 152.921875 -246.011719 Z M 152.921875 -246.011719 "/></g></g></g><g fill="#1f003d" fill-opacity="1"><g transform="translate(417.470693, 490.353409)"><g><path d="M 212.058594 -76.914062 C 202.996094 -61.679688 182.695312 -48.246094 156.859375 -47.90625 C 127.609375 -47.519531 104.976562 -62.824219 91.945312 -89.46875 L 199.523438 -140.136719 C 212.605469 -146.160156 220.765625 -156.019531 220.546875 -172.59375 C 220.121094 -204.769531 191.355469 -241.445312 127.496094 -240.601562 C 63.632812 -239.757812 10.167969 -189.804688 11.101562 -119.117188 C 12.09375 -44.042969 62.953125 4.042969 130.714844 3.148438 C 193.601562 2.316406 226.152344 -43.457031 228.707031 -71.773438 C 229.058594 -82.015625 217.8125 -84.304688 212.058594 -76.914062 Z M 119.003906 -219.035156 C 145.328125 -219.382812 158.460938 -184.9375 158.691406 -167.390625 C 158.828125 -157.152344 155.035156 -148.8125 146.320312 -144.308594 L 83.851562 -111.789062 C 80.269531 -124.421875 78.621094 -138.539062 78.421875 -153.652344 C 77.933594 -190.699219 93.164062 -218.695312 119.003906 -219.035156 Z M 119.003906 -219.035156 "/></g></g></g><g fill="#1f003d" fill-opacity="1"><g transform="translate(651.060456, 486.648027)"><g><path d="M 269.226562 -40.710938 L 265.527344 -128.585938 C 261.574219 -206.226562 219.328125 -233.597656 174.976562 -234.683594 C 141.832031 -235.496094 115.644531 -221.503906 101.875 -196.96875 L 102.542969 -224.265625 C 102.769531 -233.523438 97.574219 -240.480469 86.222656 -234.90625 L 27.53125 -208.058594 C 21.609375 -205.277344 17.648438 -202.933594 17.53125 -198.0625 L 17.484375 -196.109375 C 17.183594 -183.925781 41.019531 -181.390625 40.480469 -159.457031 L 37.699219 -45.894531 C 37.1875 -24.9375 16.132812 -21.550781 15.835938 -9.367188 L 15.789062 -7.417969 C 15.667969 -2.542969 19.972656 0.976562 26.796875 1.144531 L 117.449219 3.363281 C 124.273438 3.53125 128.746094 0.226562 128.863281 -4.648438 L 128.910156 -6.597656 C 129.210938 -18.78125 108.347656 -23.195312 108.859375 -44.152344 L 111.570312 -154.792969 C 112.347656 -186.472656 127.992188 -208.035156 154.3125 -207.390625 C 180.144531 -206.757812 193.753906 -184.964844 194.914062 -132.753906 L 197.578125 -42.46875 C 198.027344 -20.996094 179.414062 -17.550781 179.113281 -5.367188 L 179.066406 -3.417969 C 178.945312 1.457031 183.25 4.976562 190.074219 5.144531 L 274.394531 7.207031 C 281.21875 7.375 285.6875 4.070312 285.804688 -0.804688 L 285.855469 -2.753906 C 286.152344 -14.9375 270.164062 -19.230469 269.226562 -40.710938 Z M 269.226562 -40.710938 "/></g></g></g><g fill="#1f003d" fill-opacity="1"><g transform="translate(938.220473, 493.647285)"><g><path d="M 256.039062 -30.148438 L 276.253906 -339.078125 C 276.988281 -350.269531 271.339844 -353.570312 257.917969 -350.050781 L 192.910156 -334.761719 C 186.460938 -333.230469 182.28125 -329.105469 181.964844 -324.242188 L 181.867188 -322.78125 C 181.070312 -310.617188 205.300781 -307.566406 203.835938 -285.1875 L 198.742188 -207.347656 C 184.945312 -220.464844 166.902344 -228.484375 143.0625 -230.046875 C 80.792969 -234.121094 25.035156 -188.421875 20.320312 -116.417969 C 15.195312 -38.09375 67.304688 9.289062 126.660156 13.175781 C 151.472656 14.796875 175.914062 7.113281 191.625 -8.957031 L 191.894531 1.808594 C 191.484375 8.132812 195.574219 12.796875 202.386719 13.242188 L 262.710938 17.191406 C 268.550781 17.574219 272.632812 14.910156 272.984375 9.558594 L 273.078125 8.097656 C 273.84375 -3.578125 254.699219 -9.714844 256.039062 -30.148438 Z M 144.082031 -6.695312 C 103.796875 -10.796875 86.320312 -87.183594 91.769531 -140.570312 C 95.703125 -185.753906 115.910156 -210.8125 145.585938 -208.871094 C 174.289062 -206.992188 196.484375 -172.804688 194.445312 -141.667969 L 188.84375 -56.042969 C 186.582031 -21.503906 164.03125 -5.390625 144.082031 -6.695312 Z M 144.082031 -6.695312 "/></g></g></g></g></g></svg>